0.11m3min_grf.mot
version=1
nRows=22
nColumns 19
inDegrees=yes
endheader
time	1_ground_force_vx	1_ground_force_vy	1_ground_force_vz	1_ground_force_px	1_ground_force_py	1_ground_force_pz	1_ground_torque_x	1_ground_torque_y	1_ground_torque_z	2_ground_force_vx	2_ground_force_vy	2_ground_force_vz	2_ground_force_px	2_ground_force_py	2_ground_force_pz	2_ground_torque_x	2_ground_torque_y	2_ground_torque_z
            1.253500	            0.548798	            0.362800	           -0.504234	           -0.233013	            0.005581	           -0.255695	            0.115305	           -0.092338	            0.060358	           -0.047371	            0.182808	            0.329174	           -0.232311	            0.006130	           -0.833667	           -0.018742	           -0.018772	           -0.056610
            1.254000	            0.595309	           -0.178971	           -0.277388	           -0.233013	            0.005581	           -0.255695	            0.105819	           -0.009039	            0.043915	            0.002638	           -0.736426	           -0.049556	           -0.232311	            0.006130	           -0.833667	           -0.000041	            0.000336	           -0.094251
            1.254500	            0.503868	           -0.900248	           -0.234396	           -0.233013	            0.005581	           -0.255695	            0.198083	            0.000342	            0.002246	           -0.001247	            0.367627	            0.189027	           -0.232311	            0.006130	           -0.833667	           -0.056329	           -0.018773	           -0.094295
            1.255000	            0.320038	            0.361970	           -0.320242	           -0.233013	            0.005581	           -0.255695	            0.107538	           -0.009409	            0.088555	            0.141899	           -0.367957	            0.045554	           -0.232311	            0.006130	           -0.833667	           -0.056390	            0.009249	            0.000058
            1.255500	            0.274554	           -0.359495	           -0.231508	           -0.233013	            0.005581	           -0.255695	            0.197766	           -0.046061	            0.011053	            0.097770	           -1.105221	            0.183730	           -0.232311	            0.006130	           -0.833667	           -0.018878	            0.019039	           -0.056475
            1.256000	            0.319730	            0.182294	           -0.458583	           -0.233013	            0.005581	           -0.255695	            0.113338	           -0.036820	            0.013237	            0.237593	           -0.920063	            0.043543	           -0.232311	            0.006130	           -0.833667	           -0.018947	            0.037945	           -0.056408
            1.256500	            0.457486	            0.181927	           -0.367212	           -0.233013	            0.005581	           -0.255695	            0.128207	            0.000223	            0.019224	            0.238237	           -1.104044	           -0.004042	           -0.232311	            0.006130	           -0.833667	           -0.093841	           -0.028563	           -0.037762
            1.257000	            0.274018	           -0.538778	           -0.461561	           -0.233013	            0.005581	           -0.255695	            0.188838	           -0.036746	           -0.007677	           -0.183994	           -0.922088	            0.184507	           -0.232311	            0.006130	           -0.833667	           -0.037699	            0.037608	            0.019001
            1.257500	            0.549091	            0.001876	           -0.414069	           -0.233013	            0.005581	           -0.255695	            0.055258	           -0.064536	            0.041841	            0.050296	           -0.921577	            0.278263	           -0.232311	            0.006130	           -0.833667	           -0.056287	           -0.028293	           -0.075478
            1.258000	            0.320203	           -0.539359	           -0.324107	           -0.233013	            0.005581	           -0.255695	            0.070346	           -0.045987	           -0.005468	            0.377602	           -0.736412	            0.325709	           -0.232311	            0.006130	           -0.833667	           -0.056254	           -0.028562	           -0.000077
            1.258500	            0.457795	            0.361603	           -0.228871	           -0.233013	            0.005581	           -0.255695	            0.084583	            0.028110	           -0.018151	           -0.139220	           -0.368804	           -0.001254	           -0.232311	            0.006130	           -0.833667	            0.018802	           -0.000067	            0.037692
            1.259000	            0.457145	            0.182517	           -0.504780	           -0.233013	            0.005581	           -0.255695	            0.077677	           -0.073578	           -0.018564	            0.047638	           -0.184983	            0.280892	           -0.232311	            0.006130	           -0.833667	           -0.056433	            0.018769	           -0.018759
            1.259500	            0.366450	            0.360995	           -0.091076	           -0.233013	            0.005581	           -0.255695	            0.134992	           -0.055027	           -0.041340	            0.143934	           -0.920736	            0.137439	           -0.232311	            0.006130	           -0.833667	            0.037657	           -0.028088	           -0.037818
            1.260000	            0.503656	           -0.359254	           -0.277933	           -0.233013	            0.005581	           -0.255695	            0.105884	           -0.036731	            0.021094	            0.285169	           -1.104544	            0.183651	           -0.232311	            0.006130	           -0.833667	           -0.075225	            0.009585	           -0.113036
            1.260500	            0.457208	            1.083452	           -0.409203	           -0.233013	            0.005581	           -0.255695	            0.148135	           -0.073319	           -0.075164	            0.095755	           -0.552609	            0.138773	           -0.232311	            0.006130	           -0.833667	           -0.056142	           -0.066171	           -0.056763
            1.261000	            0.320185	            0.181507	           -0.275159	           -0.233013	            0.005581	           -0.255695	            0.049192	            0.009391	            0.013595	            0.144537	           -1.104382	           -0.004002	           -0.232311	            0.006130	           -0.833667	           -0.000007	           -0.009117	           -0.094285
            1.261500	            0.549058	            0.182141	           -0.413296	           -0.233013	            0.005581	           -0.255695	            0.073859	           -0.018234	            0.023189	            0.049673	           -0.737763	            0.372777	           -0.232311	            0.006130	           -0.833667	           -0.093917	           -0.009590	           -0.056544
            1.262000	            0.595779	            0.360843	           -0.045789	           -0.233013	            0.005581	           -0.255695	            0.058161	           -0.064501	            0.043776	            0.281887	           -0.184138	            0.280792	           -0.232311	            0.006130	           -0.833667	           -0.093917	           -0.009590	           -0.056544
            1.262500	            0.182722	           -0.179051	           -0.276364	           -0.233013	            0.005581	           -0.255695	            0.161863	           -0.036545	           -0.067926	            0.191408	           -1.104381	            0.042906	           -0.232311	            0.006130	           -0.833667	           -0.037366	           -0.056852	           -0.000186
            1.263000	            0.182266	           -0.178264	           -0.459787	           -0.233013	            0.005581	           -0.255695	            0.151334	           -0.046523	            0.101241	            0.045521	            0.368466	            0.001294	           -0.232311	            0.006130	           -0.833667	           -0.037495	           -0.009925	            0.094233
            1.263500	            0.319160	            0.183277	           -0.687862	           -0.233013	            0.005581	           -0.255695	            0.123114	           -0.036827	            0.013213	           -0.044109	           -0.737432	            0.185104	           -0.232311	            0.006130	           -0.833667	           -0.056501	            0.037675	           -0.018691
            1.264000	            0.502451	            0.003243	           -0.734946	           -0.233013	            0.005581	           -0.255695	            0.087882	            0.027550	            0.115392	            0.238278	           -1.104379	            0.089814	           -0.232311	            0.006130	           -0.833667	            0.037445	            0.019512	           -0.131900
